<?xml version="1.0" encoding="utf-8"?>
<svg xmlns="http://www.w3.org/2000/svg" xmlns:xlink="http://www.w3.org/1999/xlink" style="margin: auto; background: rgb(23, 165, 233) none repeat scroll 0% 0%; display: block; shape-rendering: auto;" width="111px" height="111px" viewBox="0 0 100 100" preserveAspectRatio="xMidYMid">
<g transform="translate(50 50)">
<g>
<animateTransform attributeName="transform" type="rotate" values="0;45" keyTimes="0;1" dur="0.13966480446927373s" repeatCount="indefinite"></animateTransform><path d="M25.411611519146124 -5.5 L34.41161151914612 -5.5 L34.41161151914612 5.5 L25.411611519146124 5.5 A26 26 0 0 1 21.857810122592422 14.079635529540397 L21.857810122592422 14.079635529540397 L28.22177115327135 20.443596560219326 L20.44359656021933 28.22177115327135 L14.0796355295404 21.857810122592422 A26 26 0 0 1 5.499999999999998 25.411611519146124 L5.499999999999998 25.411611519146124 L5.499999999999999 34.41161151914612 L-5.499999999999995 34.41161151914612 L-5.499999999999996 25.411611519146124 A26 26 0 0 1 -14.0796355295404 21.857810122592422 L-14.0796355295404 21.857810122592422 L-20.44359656021933 28.22177115327135 L-28.221771153271348 20.44359656021933 L-21.85781012259242 14.079635529540402 A26 26 0 0 1 -25.411611519146124 5.5 L-25.411611519146124 5.5 L-34.41161151914612 5.500000000000001 L-34.41161151914612 -5.499999999999993 L-25.411611519146124 -5.499999999999994 A26 26 0 0 1 -21.857810122592422 -14.079635529540397 L-21.857810122592422 -14.079635529540397 L-28.221771153271348 -20.443596560219326 L-20.44359656021932 -28.22177115327135 L-14.079635529540393 -21.857810122592422 A26 26 0 0 1 -5.500000000000013 -25.411611519146124 L-5.500000000000013 -25.411611519146124 L-5.500000000000015 -34.41161151914612 L5.500000000000002 -34.41161151914612 L5.5000000000000036 -25.411611519146124 A26 26 0 0 1 14.079635529540385 -21.85781012259243 L14.079635529540385 -21.85781012259243 L20.443596560219312 -28.22177115327136 L28.221771153271348 -20.443596560219323 L21.857810122592422 -14.079635529540393 A26 26 0 0 1 25.411611519146124 -5.500000000000014 M0 -20A20 20 0 1 0 0 20 A20 20 0 1 0 0 -20" fill="#ffffff"></path></g></g>
<!-- [ldio] generated by https://loading.io/ --></svg>